# xmcd CD database file
#
# Track frame offsets:
#	150
#	10209
#	20937
#	34783
#	45394
#	60043
#	77156
#	89201
#	100210
#	119951
#	131178
#	146355
#	158164
#	171461
#
# Disc length: 2562 seconds
#
# Revision: 0
# Processed by: cddbd v1.5.2PL0 Copyright (c) Steve Scherf et al.
# Submitted via: CDex 1.70beta2
#
DISCID=c30a000e
DTITLE=Kelly, Elly - Cdn. - Maritime Music
DYEAR=1900
DGENRE=Country
TTITLE0=I'se the BVy's
TTITLE1=Camblellford Reel
TTITLE2=Florence Killen Waltz
TTITLE3=Red Wing
TTITLE4=Chinese Breakdown
TTITLE5=Newfoundland Waltz
TTITLE6=Jimmy's Favourite Jig
TTITLE7=Diggy Diggy Lo
TTITLE8=Waltz of the Angles
TTITLE9=In the Mood
TTITLE10=Coe Hill Shuffle
TTITLE11=Calope de Lotiniere
TTITLE12=Joys of Quebec
TTITLE13=Going Home
EXTD=
EXTT0=
EXTT1=
EXTT2=
EXTT3=
EXTT4=
EXTT5=
EXTT6=
EXTT7=
EXTT8=
EXTT9=
EXTT10=
EXTT11=
EXTT12=
EXTT13=
PLAYORDER=
